# xmcd
#
# Track frame offsets: 
#        150
#        15535
#        33537
#        48875
#        68989
#        74041
#        90481
#        106876
#        110365
#        129923
#        136430
#        155874
#
# Disc length: 2340 seconds
#
# Revision: 2
# Processed by: cddbd v1.5.2PL0 Copyright (c) Steve Scherf et al.
# Submitted via: ExactAudioCopy v1.0b3
#
DISCID=a409220c
DTITLE=Anna Depenbusch - Ins Gesicht
DYEAR=2005
DGENRE=Pop
TTITLE0=Engel
TTITLE1=Tango
TTITLE2=Heimat
TTITLE3=Ins Gesicht
TTITLE4=Strandgut
TTITLE5=Ausflug
TTITLE6=Nimm mich zurück
TTITLE7=Irrlicht
TTITLE8=So laut
TTITLE9=Streichholz
TTITLE10=Leinenlos
TTITLE11=Schlaflied
EXTD=YEAR: 2005
EXTT0=
EXTT1=
EXTT2=
EXTT3=
EXTT4=
EXTT5=
EXTT6=
EXTT7=
EXTT8=
EXTT9=
EXTT10=
EXTT11=
PLAYORDER=
